<mxfile host="Electron" modified="2024-01-14T10:44:16.675Z" agent="Mozilla/5.0 (X11; Linux x86_64) AppleWebKit/537.36 (KHTML, like Gecko) draw.io/22.1.18 Chrome/120.0.6099.199 Electron/28.1.2 Safari/537.36" etag="n0GG6wyfPZJcQVwbYSEg" version="22.1.18" type="device">
  <diagram name="Page-1" id="vKLECM-iY1IPc-13s7V7">
    <mxGraphModel dx="2441" dy="1467" grid="1" gridSize="10" guides="1" tooltips="1" connect="1" arrows="1" fold="1" page="1" pageScale="1" pageWidth="850" pageHeight="1100" math="0" shadow="0">
      <root>
        <mxCell id="0" />
        <mxCell id="1" parent="0" />
        <mxCell id="Jbgw9O83iIG3ackLFsxW-11" style="edgeStyle=orthogonalEdgeStyle;rounded=0;orthogonalLoop=1;jettySize=auto;html=1;" edge="1" parent="1" source="Jbgw9O83iIG3ackLFsxW-1" target="Jbgw9O83iIG3ackLFsxW-8">
          <mxGeometry relative="1" as="geometry">
            <Array as="points">
              <mxPoint x="400" y="360" />
              <mxPoint x="910" y="360" />
            </Array>
          </mxGeometry>
        </mxCell>
        <mxCell id="Jbgw9O83iIG3ackLFsxW-1" value="render" style="rounded=1;whiteSpace=wrap;html=1;" vertex="1" parent="1">
          <mxGeometry x="340" y="250" width="120" height="60" as="geometry" />
        </mxCell>
        <mxCell id="Jbgw9O83iIG3ackLFsxW-5" value="Renderer.scala" style="shape=hexagon;perimeter=hexagonPerimeter2;whiteSpace=wrap;html=1;fixedSize=1;" vertex="1" parent="1">
          <mxGeometry x="-100" y="400" width="120" height="80" as="geometry" />
        </mxCell>
        <mxCell id="Jbgw9O83iIG3ackLFsxW-6" value="Renderable.scala" style="shape=hexagon;perimeter=hexagonPerimeter2;whiteSpace=wrap;html=1;fixedSize=1;" vertex="1" parent="1">
          <mxGeometry x="60" y="400" width="180" height="80" as="geometry" />
        </mxCell>
        <mxCell id="Jbgw9O83iIG3ackLFsxW-7" value="Shader.scala" style="shape=hexagon;perimeter=hexagonPerimeter2;whiteSpace=wrap;html=1;fixedSize=1;" vertex="1" parent="1">
          <mxGeometry x="740" y="560" width="120" height="80" as="geometry" />
        </mxCell>
        <mxCell id="Jbgw9O83iIG3ackLFsxW-10" style="edgeStyle=orthogonalEdgeStyle;rounded=0;orthogonalLoop=1;jettySize=auto;html=1;" edge="1" parent="1" source="Jbgw9O83iIG3ackLFsxW-8" target="Jbgw9O83iIG3ackLFsxW-7">
          <mxGeometry relative="1" as="geometry">
            <Array as="points">
              <mxPoint x="910" y="520" />
              <mxPoint x="800" y="520" />
            </Array>
          </mxGeometry>
        </mxCell>
        <mxCell id="Jbgw9O83iIG3ackLFsxW-17" style="edgeStyle=orthogonalEdgeStyle;rounded=0;orthogonalLoop=1;jettySize=auto;html=1;" edge="1" parent="1" source="Jbgw9O83iIG3ackLFsxW-8" target="Jbgw9O83iIG3ackLFsxW-12">
          <mxGeometry relative="1" as="geometry">
            <Array as="points">
              <mxPoint x="910" y="520" />
              <mxPoint x="1040" y="520" />
            </Array>
          </mxGeometry>
        </mxCell>
        <mxCell id="Jbgw9O83iIG3ackLFsxW-8" value="shader" style="rounded=1;whiteSpace=wrap;html=1;" vertex="1" parent="1">
          <mxGeometry x="850" y="410" width="120" height="60" as="geometry" />
        </mxCell>
        <mxCell id="Jbgw9O83iIG3ackLFsxW-15" style="edgeStyle=orthogonalEdgeStyle;rounded=0;orthogonalLoop=1;jettySize=auto;html=1;endArrow=block;endFill=0;" edge="1" parent="1" source="Jbgw9O83iIG3ackLFsxW-12" target="Jbgw9O83iIG3ackLFsxW-13">
          <mxGeometry relative="1" as="geometry" />
        </mxCell>
        <mxCell id="Jbgw9O83iIG3ackLFsxW-16" style="edgeStyle=orthogonalEdgeStyle;rounded=0;orthogonalLoop=1;jettySize=auto;html=1;endArrow=block;endFill=0;" edge="1" parent="1" source="Jbgw9O83iIG3ackLFsxW-12" target="Jbgw9O83iIG3ackLFsxW-14">
          <mxGeometry relative="1" as="geometry" />
        </mxCell>
        <mxCell id="Jbgw9O83iIG3ackLFsxW-12" value="ShaderSource.scala" style="shape=hexagon;perimeter=hexagonPerimeter2;whiteSpace=wrap;html=1;fixedSize=1;" vertex="1" parent="1">
          <mxGeometry x="970" y="560" width="140" height="80" as="geometry" />
        </mxCell>
        <mxCell id="Jbgw9O83iIG3ackLFsxW-13" value="VertexSource.scala" style="shape=hexagon;perimeter=hexagonPerimeter2;whiteSpace=wrap;html=1;fixedSize=1;" vertex="1" parent="1">
          <mxGeometry x="880" y="720" width="140" height="80" as="geometry" />
        </mxCell>
        <mxCell id="Jbgw9O83iIG3ackLFsxW-14" value="FragmentSource.scala" style="shape=hexagon;perimeter=hexagonPerimeter2;whiteSpace=wrap;html=1;fixedSize=1;" vertex="1" parent="1">
          <mxGeometry x="1070" y="720" width="140" height="80" as="geometry" />
        </mxCell>
        <mxCell id="Jbgw9O83iIG3ackLFsxW-29" value="Contains everything to do with shaders." style="shape=note;strokeWidth=2;fontSize=14;size=20;whiteSpace=wrap;html=1;fillColor=#fff2cc;strokeColor=#d6b656;fontColor=#666600;" vertex="1" parent="1">
          <mxGeometry x="1030" y="350" width="110.00000000000001" height="80" as="geometry" />
        </mxCell>
        <mxCell id="Jbgw9O83iIG3ackLFsxW-31" value="" style="endArrow=none;html=1;rounded=0;fillColor=#fff2cc;strokeColor=#d6b656;strokeWidth=2;" edge="1" parent="1" source="Jbgw9O83iIG3ackLFsxW-8" target="Jbgw9O83iIG3ackLFsxW-29">
          <mxGeometry width="50" height="50" relative="1" as="geometry">
            <mxPoint x="1080" y="430" as="sourcePoint" />
            <mxPoint x="1130" y="380" as="targetPoint" />
          </mxGeometry>
        </mxCell>
        <mxCell id="Jbgw9O83iIG3ackLFsxW-32" value="Used to compile &amp;amp; link, use and detach a shader and upload uniforms." style="shape=note;strokeWidth=2;fontSize=14;size=20;whiteSpace=wrap;html=1;fillColor=#fff2cc;strokeColor=#d6b656;fontColor=#666600;" vertex="1" parent="1">
          <mxGeometry x="510" y="610" width="190" height="100" as="geometry" />
        </mxCell>
        <mxCell id="Jbgw9O83iIG3ackLFsxW-33" value="" style="endArrow=none;html=1;rounded=0;fillColor=#fff2cc;strokeColor=#d6b656;strokeWidth=2;" edge="1" parent="1" source="Jbgw9O83iIG3ackLFsxW-32" target="Jbgw9O83iIG3ackLFsxW-7">
          <mxGeometry width="50" height="50" relative="1" as="geometry">
            <mxPoint x="980" y="435" as="sourcePoint" />
            <mxPoint x="1070" y="413" as="targetPoint" />
          </mxGeometry>
        </mxCell>
        <mxCell id="Jbgw9O83iIG3ackLFsxW-34" value="Reads shader source from source file." style="shape=note;strokeWidth=2;fontSize=14;size=20;whiteSpace=wrap;html=1;fillColor=#fff2cc;strokeColor=#d6b656;fontColor=#666600;" vertex="1" parent="1">
          <mxGeometry x="1165" y="520" width="110.00000000000001" height="80" as="geometry" />
        </mxCell>
        <mxCell id="Jbgw9O83iIG3ackLFsxW-35" value="" style="endArrow=none;html=1;rounded=0;fillColor=#fff2cc;strokeColor=#d6b656;strokeWidth=2;" edge="1" parent="1" source="Jbgw9O83iIG3ackLFsxW-12" target="Jbgw9O83iIG3ackLFsxW-34">
          <mxGeometry width="50" height="50" relative="1" as="geometry">
            <mxPoint x="980" y="435" as="sourcePoint" />
            <mxPoint x="1070" y="413" as="targetPoint" />
          </mxGeometry>
        </mxCell>
      </root>
    </mxGraphModel>
  </diagram>
</mxfile>
